<svg width="695" height="121" viewBox="0 0 695 121" fill="none" xmlns="http://www.w3.org/2000/svg">
<path d="M165.6 95C163.04 95 160.416 95 157.728 95C155.04 95 152.384 95 149.76 95C149.76 83.416 149.76 71.736 149.76 59.96C149.76 48.184 149.76 36.504 149.76 24.92C152.384 24.92 155.04 24.92 157.728 24.92C160.416 24.92 163.04 24.92 165.6 24.92C165.6 28.76 165.6 32.632 165.6 36.536C165.6 40.44 165.6 44.312 165.6 48.152C167.2 46.872 169.024 45.88 171.072 45.176C173.12 44.408 175.296 44.024 177.6 44.024C180.8 44.024 183.84 44.664 186.72 45.944C189.6 47.16 192.128 48.92 194.304 51.224C196.544 53.528 198.272 56.28 199.488 59.48C200.768 62.68 201.408 66.232 201.408 70.136C201.408 73.976 200.768 77.496 199.488 80.696C198.272 83.896 196.544 86.68 194.304 89.048C192.128 91.352 189.6 93.144 186.72 94.424C183.84 95.704 180.768 96.344 177.504 96.344C175.2 96.344 173.024 95.96 170.976 95.192C168.992 94.488 167.2 93.464 165.6 92.12C165.6 92.568 165.6 93.048 165.6 93.56C165.6 94.008 165.6 94.488 165.6 95ZM175.392 82.328C178.528 82.328 180.992 81.24 182.784 79.064C184.64 76.824 185.568 73.848 185.568 70.136C185.568 66.424 184.64 63.48 182.784 61.304C180.992 59.128 178.528 58.04 175.392 58.04C172.32 58.04 169.856 59.16 168 61.4C166.144 63.576 165.216 66.488 165.216 70.136C165.216 73.784 166.144 76.728 168 78.968C169.856 81.208 172.32 82.328 175.392 82.328ZM209.28 95C209.28 86.808 209.28 78.552 209.28 70.232C209.28 61.848 209.28 53.56 209.28 45.368C211.904 45.368 214.56 45.368 217.248 45.368C219.936 45.368 222.56 45.368 225.12 45.368C225.12 45.816 225.12 46.264 225.12 46.712C225.12 47.16 225.12 47.608 225.12 48.056C227.104 46.648 229.344 45.592 231.84 44.888C234.336 44.184 237.056 43.992 240 44.312C240 46.872 240 49.464 240 52.088C240 54.712 240 57.304 240 59.864C234.944 59.16 231.2 59.608 228.768 61.208C226.336 62.744 225.12 65.272 225.12 68.792C225.12 73.08 225.12 77.432 225.12 81.848C225.12 86.264 225.12 90.648 225.12 95C222.56 95 219.936 95 217.248 95C214.56 95 211.904 95 209.28 95ZM279.806 95C279.806 94.488 279.806 94.008 279.806 93.56C279.806 93.048 279.806 92.568 279.806 92.12C278.206 93.464 276.382 94.488 274.334 95.192C272.35 95.96 270.206 96.344 267.902 96.344C264.638 96.344 261.566 95.736 258.686 94.52C255.806 93.24 253.246 91.448 251.006 89.144C248.83 86.776 247.102 83.992 245.822 80.792C244.606 77.592 243.998 74.04 243.998 70.136C243.998 66.168 244.606 62.584 245.822 59.384C247.102 56.184 248.83 53.464 251.006 51.224C253.246 48.92 255.806 47.16 258.686 45.944C261.566 44.664 264.606 44.024 267.806 44.024C270.11 44.024 272.286 44.408 274.334 45.176C276.382 45.88 278.206 46.872 279.806 48.152C279.806 47.64 279.806 47.16 279.806 46.712C279.806 46.264 279.806 45.816 279.806 45.368C282.43 45.368 285.086 45.368 287.774 45.368C290.462 45.368 293.086 45.368 295.646 45.368C295.646 53.56 295.646 61.848 295.646 70.232C295.646 78.552 295.646 86.808 295.646 95C293.086 95 290.462 95 287.774 95C285.086 95 282.43 95 279.806 95ZM270.014 82.328C273.086 82.328 275.55 81.208 277.406 78.968C279.262 76.728 280.19 73.784 280.19 70.136C280.19 66.488 279.262 63.576 277.406 61.4C275.55 59.16 273.086 58.04 270.014 58.04C266.878 58.04 264.382 59.128 262.526 61.304C260.734 63.48 259.838 66.424 259.838 70.136C259.838 73.848 260.734 76.824 262.526 79.064C264.382 81.24 266.878 82.328 270.014 82.328ZM306.218 95C306.218 86.808 306.218 78.552 306.218 70.232C306.218 61.848 306.218 53.56 306.218 45.368C308.842 45.368 311.498 45.368 314.186 45.368C316.874 45.368 319.498 45.368 322.058 45.368C322.058 45.816 322.058 46.232 322.058 46.616C322.058 47 322.058 47.416 322.058 47.864C323.786 46.648 325.706 45.72 327.818 45.08C329.994 44.376 332.33 44.024 334.826 44.024C338.474 44.024 341.674 44.856 344.426 46.52C347.242 48.184 349.418 50.584 350.954 53.72C352.554 56.792 353.354 60.504 353.354 64.856C353.354 69.848 353.354 74.872 353.354 79.928C353.354 84.984 353.354 90.008 353.354 95C350.794 95 348.17 95 345.482 95C342.794 95 340.138 95 337.514 95C337.514 90.392 337.514 85.72 337.514 80.984C337.514 76.248 337.514 71.576 337.514 66.968C337.514 64.408 336.906 62.36 335.69 60.824C334.538 59.224 332.682 58.424 330.122 58.424C327.562 58.424 325.578 59.16 324.17 60.632C322.762 62.104 322.058 64.216 322.058 66.968C322.058 71.576 322.058 76.248 322.058 80.984C322.058 85.72 322.058 90.392 322.058 95C319.498 95 316.874 95 314.186 95C311.498 95 308.842 95 306.218 95ZM396.244 95C396.244 94.488 396.244 94.008 396.244 93.56C396.244 93.048 396.244 92.568 396.244 92.12C394.644 93.464 392.82 94.488 390.772 95.192C388.788 95.96 386.644 96.344 384.34 96.344C381.076 96.344 378.004 95.704 375.124 94.424C372.244 93.144 369.684 91.352 367.444 89.048C365.268 86.68 363.54 83.896 362.26 80.696C361.044 77.496 360.436 73.976 360.436 70.136C360.436 66.232 361.044 62.68 362.26 59.48C363.54 56.28 365.268 53.528 367.444 51.224C369.684 48.92 372.244 47.16 375.124 45.944C378.004 44.664 381.044 44.024 384.244 44.024C386.548 44.024 388.724 44.408 390.772 45.176C392.82 45.88 394.644 46.872 396.244 48.152C396.244 44.312 396.244 40.44 396.244 36.536C396.244 32.632 396.244 28.76 396.244 24.92C398.868 24.92 401.524 24.92 404.212 24.92C406.9 24.92 409.524 24.92 412.084 24.92C412.084 36.504 412.084 48.184 412.084 59.96C412.084 71.736 412.084 83.416 412.084 95C409.524 95 406.9 95 404.212 95C401.524 95 398.868 95 396.244 95ZM386.452 82.328C389.524 82.328 391.988 81.208 393.844 78.968C395.7 76.728 396.628 73.784 396.628 70.136C396.628 66.488 395.7 63.576 393.844 61.4C391.988 59.16 389.524 58.04 386.452 58.04C383.316 58.04 380.82 59.128 378.964 61.304C377.172 63.48 376.276 66.424 376.276 70.136C376.276 73.848 377.172 76.824 378.964 79.064C380.82 81.24 383.316 82.328 386.452 82.328ZM431.572 39.704C429.716 39.704 428.02 39.256 426.484 38.36C425.012 37.464 423.828 36.28 422.932 34.808C422.036 33.336 421.588 31.704 421.588 29.912C421.588 28.12 422.036 26.52 422.932 25.112C423.828 23.64 425.012 22.456 426.484 21.56C428.02 20.664 429.716 20.216 431.572 20.216C433.364 20.216 434.996 20.664 436.468 21.56C438.004 22.456 439.22 23.64 440.116 25.112C441.012 26.52 441.46 28.12 441.46 29.912C441.46 31.704 441.012 33.336 440.116 34.808C439.22 36.28 438.004 37.464 436.468 38.36C434.996 39.256 433.364 39.704 431.572 39.704ZM423.604 95C423.604 86.808 423.604 78.552 423.604 70.232C423.604 61.848 423.604 53.56 423.604 45.368C426.228 45.368 428.884 45.368 431.572 45.368C434.26 45.368 436.884 45.368 439.444 45.368C439.444 53.56 439.444 61.848 439.444 70.232C439.444 78.552 439.444 86.808 439.444 95C436.884 95 434.26 95 431.572 95C428.884 95 426.228 95 423.604 95ZM450.499 95C450.499 86.808 450.499 78.552 450.499 70.232C450.499 61.848 450.499 53.56 450.499 45.368C453.123 45.368 455.779 45.368 458.467 45.368C461.155 45.368 463.779 45.368 466.339 45.368C466.339 45.816 466.339 46.232 466.339 46.616C466.339 47 466.339 47.416 466.339 47.864C468.067 46.648 469.987 45.72 472.099 45.08C474.275 44.376 476.611 44.024 479.107 44.024C482.755 44.024 485.955 44.856 488.707 46.52C491.523 48.184 493.699 50.584 495.235 53.72C496.835 56.792 497.635 60.504 497.635 64.856C497.635 69.848 497.635 74.872 497.635 79.928C497.635 84.984 497.635 90.008 497.635 95C495.075 95 492.451 95 489.763 95C487.075 95 484.419 95 481.795 95C481.795 90.392 481.795 85.72 481.795 80.984C481.795 76.248 481.795 71.576 481.795 66.968C481.795 64.408 481.187 62.36 479.971 60.824C478.819 59.224 476.963 58.424 474.403 58.424C471.843 58.424 469.859 59.16 468.451 60.632C467.043 62.104 466.339 64.216 466.339 66.968C466.339 71.576 466.339 76.248 466.339 80.984C466.339 85.72 466.339 90.392 466.339 95C463.779 95 461.155 95 458.467 95C455.779 95 453.123 95 450.499 95ZM554.061 86.936C554.061 92.376 552.877 96.92 550.509 100.568C548.205 104.216 545.037 106.936 541.005 108.728C536.973 110.584 532.365 111.544 527.181 111.608C522.061 111.672 516.653 110.904 510.957 109.304C510.957 106.808 510.957 104.28 510.957 101.72C510.957 99.224 510.957 96.728 510.957 94.232C516.013 96.216 520.589 97.208 524.685 97.208C528.781 97.272 532.013 96.504 534.381 94.904C536.813 93.24 538.029 90.968 538.029 88.088C538.029 87.768 538.029 87.48 538.029 87.224C538.029 86.904 538.029 86.616 538.029 86.36C536.429 87.576 534.573 88.536 532.461 89.24C530.349 89.944 528.077 90.296 525.645 90.296C521.613 90.296 517.997 89.368 514.797 87.512C511.661 85.592 509.197 82.968 507.405 79.64C505.613 76.248 504.717 72.312 504.717 67.832C504.717 64.376 505.293 61.208 506.445 58.328C507.597 55.448 509.197 52.952 511.245 50.84C513.293 48.728 515.629 47.128 518.253 46.04C520.877 44.888 523.629 44.312 526.509 44.312C528.813 44.312 530.957 44.632 532.941 45.272C534.925 45.912 536.685 46.776 538.221 47.864C538.221 47.416 538.221 47 538.221 46.616C538.221 46.232 538.221 45.816 538.221 45.368C540.845 45.368 543.501 45.368 546.189 45.368C548.877 45.368 551.501 45.368 554.061 45.368C554.061 52.216 554.061 59.16 554.061 66.2C554.061 73.176 554.061 80.088 554.061 86.936ZM529.581 76.568C532.269 76.568 534.413 75.736 536.013 74.072C537.677 72.344 538.509 70.136 538.509 67.448C538.509 64.696 537.677 62.456 536.013 60.728C534.413 59 532.269 58.136 529.581 58.136C526.765 58.136 524.525 59 522.861 60.728C521.197 62.392 520.365 64.632 520.365 67.448C520.365 70.2 521.197 72.408 522.861 74.072C524.525 75.736 526.765 76.568 529.581 76.568ZM573.329 96.536C571.473 96.536 569.745 96.088 568.145 95.192C566.609 94.296 565.393 93.08 564.497 91.544C563.601 90.008 563.153 88.344 563.153 86.552C563.153 84.76 563.601 83.128 564.497 81.656C565.393 80.12 566.609 78.904 568.145 78.008C569.745 77.112 571.473 76.664 573.329 76.664C575.185 76.664 576.849 77.112 578.321 78.008C579.857 78.904 581.073 80.12 581.969 81.656C582.929 83.128 583.409 84.76 583.409 86.552C583.409 88.344 582.929 90.008 581.969 91.544C581.073 93.08 579.857 94.296 578.321 95.192C576.849 96.088 575.185 96.536 573.329 96.536ZM608.85 95C606.29 95 603.666 95 600.978 95C598.29 95 595.634 95 593.01 95C593.01 83.416 593.01 71.736 593.01 59.96C593.01 48.184 593.01 36.504 593.01 24.92C595.634 24.92 598.29 24.92 600.978 24.92C603.666 24.92 606.29 24.92 608.85 24.92C608.85 28.76 608.85 32.632 608.85 36.536C608.85 40.44 608.85 44.312 608.85 48.152C610.45 46.872 612.274 45.88 614.322 45.176C616.37 44.408 618.546 44.024 620.85 44.024C624.05 44.024 627.09 44.664 629.97 45.944C632.85 47.16 635.378 48.92 637.554 51.224C639.794 53.528 641.522 56.28 642.738 59.48C644.018 62.68 644.658 66.232 644.658 70.136C644.658 73.976 644.018 77.496 642.738 80.696C641.522 83.896 639.794 86.68 637.554 89.048C635.378 91.352 632.85 93.144 629.97 94.424C627.09 95.704 624.018 96.344 620.754 96.344C618.45 96.344 616.274 95.96 614.226 95.192C612.242 94.488 610.45 93.464 608.85 92.12C608.85 92.568 608.85 93.048 608.85 93.56C608.85 94.008 608.85 94.488 608.85 95ZM618.642 82.328C621.778 82.328 624.242 81.24 626.034 79.064C627.89 76.824 628.818 73.848 628.818 70.136C628.818 66.424 627.89 63.48 626.034 61.304C624.242 59.128 621.778 58.04 618.642 58.04C615.57 58.04 613.106 59.16 611.25 61.4C609.394 63.576 608.466 66.488 608.466 70.136C608.466 73.784 609.394 76.728 611.25 78.968C613.106 81.208 615.57 82.328 618.642 82.328ZM651.09 95C651.09 92.76 651.09 90.488 651.09 88.184C651.09 85.88 651.09 83.608 651.09 81.368C654.418 77.656 657.746 73.944 661.074 70.232C664.402 66.52 667.73 62.808 671.058 59.096C667.73 59.096 664.402 59.096 661.074 59.096C657.746 59.096 654.418 59.096 651.09 59.096C651.09 56.856 651.09 54.584 651.09 52.28C651.09 49.912 651.09 47.608 651.09 45.368C657.554 45.368 664.114 45.368 670.77 45.368C677.426 45.368 683.986 45.368 690.45 45.368C690.45 47.608 690.45 49.912 690.45 52.28C690.45 54.584 690.45 56.856 690.45 59.096C687.122 62.808 683.794 66.52 680.466 70.232C677.138 73.944 673.81 77.656 670.482 81.368C673.81 81.368 677.138 81.368 680.466 81.368C683.794 81.368 687.122 81.368 690.45 81.368C690.45 83.608 690.45 85.88 690.45 88.184C690.45 90.488 690.45 92.76 690.45 95C683.986 95 677.426 95 670.77 95C664.114 95 657.554 95 651.09 95Z" fill="black"/>
<path d="M69.2093 95L112 95L112 52.2093L69.2093 95Z" fill="black"/>
<path d="M69.2093 25.791L0 25.791L-1.21009e-05 95.0003L69.2093 25.791Z" fill="black"/>
</svg>
